<svg width="20" height="19" viewBox="0 0 20 19" fill="none" xmlns="http://www.w3.org/2000/svg">
<path d="M8.08537 18.8289C8.96903 18.8289 9.68539 18.1126 9.68539 17.2289C9.68539 16.3453 8.96903 15.6289 8.08537 15.6289C7.2017 15.6289 6.48535 16.3453 6.48535 17.2289C6.48535 18.1126 7.2017 18.8289 8.08537 18.8289Z" fill="#69943F"/>
<path d="M15.8569 18.8289C16.7405 18.8289 17.4569 18.1126 17.4569 17.2289C17.4569 16.3453 16.7405 15.6289 15.8569 15.6289C14.9732 15.6289 14.2568 16.3453 14.2568 17.2289C14.2568 18.1126 14.9732 18.8289 15.8569 18.8289Z" fill="#69943F"/>
<path d="M1 1L5.11433 3.74289L7.40007 13.8001H16.543L18.8288 6.02863H10.143" stroke="#69943F" stroke-width="2" stroke-linecap="round" stroke-linejoin="round"/>
<path d="M10.1426 10.1431H17.4569" stroke="#69943F" stroke-width="2" stroke-linecap="round" stroke-linejoin="round"/>
</svg>
