<svg width="16" height="16" viewBox="0 0 16 16" fill="none" xmlns="http://www.w3.org/2000/svg">
<path d="M13.0026 3.67696C13.0006 4.19881 12.5774 4.61997 12.0555 4.61997C11.5337 4.61792 11.1125 4.19469 11.1146 3.67285C11.1146 3.15101 11.5398 2.72985 12.0617 2.72985C12.5835 2.7319 13.0047 3.15512 13.0026 3.67696ZM7.83969 10.4712C6.39949 10.4568 5.24076 9.27958 5.25514 7.83938C5.26747 6.39918 6.44676 5.24042 7.88696 5.25275C9.32717 5.26713 10.4838 6.44437 10.4715 7.88457C10.4592 9.32477 9.27989 10.4835 7.83969 10.4712ZM7.8664 3.83105C5.63932 3.83105 3.83139 5.63285 3.83139 7.86198C3.82933 10.0891 5.63523 11.897 7.86231 11.897C10.0914 11.8991 11.8973 10.0932 11.8994 7.86609C11.9014 5.63901 10.0955 3.83311 7.8664 3.83105ZM14.1573 11.8066C13.9457 13.1811 13.0335 14.0316 11.6528 14.1837C10.3832 14.3234 4.71687 14.3994 3.53964 14.0707C2.41377 13.7563 1.77071 12.9818 1.5817 11.8477C1.40296 10.765 1.35981 5.35549 1.57964 3.90912C1.78715 2.54699 2.69935 1.69643 4.0738 1.54234C5.46675 1.3862 10.4818 1.36771 11.8172 1.57316C13.1876 1.78272 14.0381 2.69902 14.1881 4.08169C14.3299 5.37397 14.3689 10.4198 14.1573 11.8066ZM15.6036 3.94609C15.4989 2.91062 15.1024 1.99433 14.3319 1.26087C13.5224 0.488384 12.5322 0.147346 11.4474 0.0877647C9.59835 -0.0129051 5.20789 -0.0745544 3.66702 0.176094C1.90426 0.463724 0.749642 1.49097 0.262726 3.23319C-0.111192 4.57066 -0.0372333 10.7403 0.182598 12.0614C0.4805 13.8714 1.54884 15.0322 3.34242 15.4924C4.58333 15.8149 10.6811 15.7738 12.0494 15.552C13.8614 15.2582 15.0263 14.1939 15.4968 12.4045C15.8563 11.03 15.731 5.18495 15.6036 3.94609Z" fill="#7C6345"/>
</svg>
