<svg width="17" height="14" viewBox="0 0 17 14" fill="none" xmlns="http://www.w3.org/2000/svg">
<path fill-rule="evenodd" clip-rule="evenodd" d="M5.15267 10.8206C3.33855 10.759 2.20448 9.45643 1.90452 8.40042C2.40788 8.49492 2.9071 8.47644 3.40018 8.35317L3.45154 8.33057C2.46949 8.10252 1.70934 7.57656 1.18339 6.72805C0.834128 6.16512 0.665661 5.54876 0.671825 4.87078C1.16285 5.13375 1.67441 5.27964 2.22501 5.29402C1.48745 4.7619 0.990261 4.06542 0.78892 3.17788C0.587579 2.28828 0.717027 1.44389 1.16285 0.646745C3.05299 2.87382 5.44647 4.09625 8.36591 4.29759L8.30838 3.9134C8.21181 3.09366 8.37617 2.32733 8.81994 1.63086C9.37466 0.759751 10.1677 0.217352 11.1867 0.0529919C12.3619 -0.14013 13.3871 0.196806 14.2438 1.02682L14.4287 1.08024C15.1478 0.926154 15.8237 0.667277 16.4606 0.299521L16.5079 0.276925L16.5305 0.274869C16.2552 1.0864 15.7518 1.71302 15.0348 2.17322C15.7128 2.10132 16.3579 1.92054 16.9804 1.65345L16.9948 1.66577L16.5942 2.18968C16.2223 2.64783 15.797 3.04846 15.3245 3.39772L15.267 3.50661C15.2854 4.0264 15.2649 4.54412 15.2012 5.05774C15.0677 6.14252 14.7636 7.17799 14.3014 8.1662C13.8227 9.18728 13.1981 10.1098 12.4133 10.9192C11.084 12.2937 9.48149 13.1812 7.61601 13.5942C6.97501 13.7339 6.32579 13.8079 5.67041 13.8243C3.65495 13.8839 1.79564 13.3826 0.0821849 12.3245L0 12.2711C1.21832 12.4026 2.37705 12.2464 3.49265 11.7903C4.08434 11.5479 4.63288 11.2295 5.15267 10.8206Z" fill="#7C6345"/>
</svg>
