<svg width="35" height="40" viewBox="0 0 35 40" fill="none" xmlns="http://www.w3.org/2000/svg">
<path d="M17.2716 1.58328C17.5624 1.1663 17.9361 0.813728 18.3693 0.547568C18.8024 0.281409 19.2858 0.107372 19.7892 0.0363163C20.2926 -0.0347392 20.8052 -0.00128852 21.2951 0.134581C21.785 0.270451 22.2417 0.505825 22.6366 0.826016L30.7026 7.37501C31.4233 7.95985 31.8979 8.7942 32.0322 9.71257C32.1665 10.6309 31.9508 11.5663 31.4278 12.333H28.4185L29.3805 10.9541C29.5595 10.6987 29.6352 10.385 29.5921 10.076C29.5491 9.76708 29.3906 9.48591 29.1486 9.28915L24.9947 5.91968L20.5646 12.333H17.5627L23.0732 4.36075L21.0801 2.74262C20.9485 2.63584 20.7964 2.55733 20.6331 2.51198C20.4698 2.46662 20.299 2.4554 20.1312 2.47901C19.9634 2.50261 19.8022 2.56055 19.6578 2.64919C19.5134 2.73783 19.3888 2.85528 19.2918 2.99422L12.7773 12.3305H9.768L17.2716 1.58328ZM25.9 27.133C25.5729 27.133 25.2592 27.2629 25.0279 27.4942C24.7966 27.7255 24.6667 28.0392 24.6667 28.3663C24.6667 28.6934 24.7966 29.0071 25.0279 29.2384C25.2592 29.4697 25.5729 29.5997 25.9 29.5997H28.3667C28.6938 29.5997 29.0075 29.4697 29.2388 29.2384C29.4701 29.0071 29.6 28.6934 29.6 28.3663C29.6 28.0392 29.4701 27.7255 29.2388 27.4942C29.0075 27.2629 28.6938 27.133 28.3667 27.133H25.9ZM3.7 9.86635H9.0502L7.32353 12.333H3.7C3.3729 12.333 3.0592 12.463 2.8279 12.6942C2.59661 12.9255 2.46667 13.2392 2.46667 13.5663C2.46667 13.8934 2.59661 14.2071 2.8279 14.4384C3.0592 14.6697 3.3729 14.7997 3.7 14.7997H29.6C30.9084 14.7997 32.1632 15.3194 33.0884 16.2446C34.0136 17.1698 34.5333 18.4246 34.5333 19.733V34.533C34.5333 35.8414 34.0136 37.0962 33.0884 38.0214C32.1632 38.9466 30.9084 39.4663 29.6 39.4663H6.16667C4.53116 39.4663 2.96265 38.8166 1.80617 37.6602C0.6497 36.5037 0 34.9352 0 33.2997V13.5663C0 12.585 0.38982 11.6439 1.0837 10.9501C1.77759 10.2562 2.7187 9.86635 3.7 9.86635ZM2.46667 33.2997C2.46667 34.281 2.85649 35.2221 3.55037 35.916C4.24425 36.6099 5.18536 36.9997 6.16667 36.9997H29.6C30.2542 36.9997 30.8816 36.7398 31.3442 36.2772C31.8068 35.8146 32.0667 35.1872 32.0667 34.533V19.733C32.0667 19.0788 31.8068 18.4514 31.3442 17.9888C30.8816 17.5262 30.2542 17.2663 29.6 17.2663H3.7C3.26833 17.2663 2.85147 17.1923 2.46667 17.0567V33.2997Z" fill="#00814E"/>
</svg>
