<svg width="30" height="30" viewBox="0 0 30 30" fill="none" xmlns="http://www.w3.org/2000/svg">
<path d="M14.852 -1.90735e-06C6.65042 -1.90735e-06 0 6.65247 0 14.854C0 23.0556 6.65042 29.7037 14.852 29.7037C23.0535 29.7037 29.7039 23.0556 29.7039 14.854C29.7039 6.65247 23.0535 -1.90735e-06 14.852 -1.90735e-06ZM14.852 2.03601C21.9215 2.03601 27.672 7.7845 27.672 14.854C27.672 21.9215 21.9215 27.6716 14.852 27.6716C7.7845 27.6716 2.03396 21.9215 2.03396 14.854C2.03396 7.7845 7.7845 2.03601 14.852 2.03601Z" fill="#7C6345"/>
<path fill-rule="evenodd" clip-rule="evenodd" d="M16.7626 9.33795C17.3029 9.31946 17.8432 9.33384 18.3856 9.33384H18.6075V6.52328C18.3178 6.49451 18.0158 6.45344 17.7138 6.43906C17.1611 6.41235 16.6064 6.38769 16.0517 6.40001C15.2032 6.41645 14.404 6.62396 13.7034 7.12526C12.9001 7.70257 12.4604 8.5141 12.292 9.4715C12.2221 9.86596 12.2036 10.2748 12.1933 10.6775C12.179 11.3062 12.1913 11.9389 12.1913 12.5676V12.8059H9.50195V15.9432H12.1769V23.8326H15.4415V15.9555H18.1062C18.2438 14.9118 18.3774 13.8784 18.5171 12.8039C18.3014 12.8039 18.1103 12.8018 17.9172 12.8039C17.1611 12.8059 15.421 12.8039 15.421 12.8039C15.421 12.8039 15.4292 11.2466 15.4477 10.5727C15.4744 9.64818 16.0229 9.36466 16.7626 9.33795Z" fill="#7C6345"/>
</svg>
