<svg width="19" height="19" viewBox="0 0 19 19" fill="none" xmlns="http://www.w3.org/2000/svg">
<path d="M9.22836 7.40007C9.64859 7.40007 10.0647 7.3173 10.453 7.15648C10.8412 6.99566 11.194 6.75995 11.4911 6.4628C11.7883 6.16565 12.024 5.81288 12.1848 5.42463C12.3456 5.03639 12.4284 4.62027 12.4284 4.20003C12.4284 3.7798 12.3456 3.36368 12.1848 2.97543C12.024 2.58719 11.7883 2.23442 11.4911 1.93727C11.194 1.64012 10.8412 1.4044 10.453 1.24359C10.0647 1.08277 9.64859 1 9.22836 1C8.37965 1 7.56571 1.33715 6.96559 1.93727C6.36547 2.53739 6.02832 3.35133 6.02832 4.20003C6.02832 5.04874 6.36547 5.86268 6.96559 6.4628C7.56571 7.06292 8.37965 7.40007 9.22836 7.40007V7.40007Z" stroke="#69943F" stroke-width="2" stroke-linecap="round" stroke-linejoin="round"/>
<path d="M1 16.9086V17.4572H17.4573V16.9086C17.4573 14.8606 17.4573 13.8366 17.0587 13.054C16.7081 12.3658 16.1486 11.8064 15.4605 11.4558C14.6779 11.0571 13.6539 11.0571 11.6058 11.0571H6.85149C4.80347 11.0571 3.77946 11.0571 2.99682 11.4558C2.30871 11.8064 1.74925 12.3658 1.39863 13.054C1 13.8366 1 14.8606 1 16.9086Z" stroke="#69943F" stroke-width="2" stroke-linecap="round" stroke-linejoin="round"/>
</svg>
