<svg width="30" height="30" viewBox="0 0 30 30" fill="none" xmlns="http://www.w3.org/2000/svg">
<path d="M14.852 -1.90735e-06C6.64836 -1.90735e-06 0 6.65247 0 14.854C0 23.0556 6.64836 29.7037 14.852 29.7037C23.0535 29.7037 29.7019 23.0556 29.7019 14.854C29.7019 6.65247 23.0535 -1.90735e-06 14.852 -1.90735e-06ZM14.852 2.03601C21.9194 2.03601 27.6679 7.7845 27.6679 14.854C27.6679 21.9215 21.9194 27.6716 14.852 27.6716C7.78244 27.6716 2.0319 21.9215 2.0319 14.854C2.0319 7.7845 7.78244 2.03601 14.852 2.03601Z" fill="#7C6345"/>
<path fill-rule="evenodd" clip-rule="evenodd" d="M12.1419 18.6357C10.3278 18.5741 9.19374 17.2715 8.89378 16.2155C9.39713 16.31 9.89636 16.2915 10.3894 16.1683L10.4408 16.1457C9.45875 15.9176 8.6986 15.3917 8.17265 14.5432C7.82339 13.9802 7.65492 13.3639 7.66108 12.6859C8.15211 12.9489 8.66366 13.0947 9.21427 13.1091C8.4767 12.577 7.97952 11.8805 7.77818 10.993C7.57684 10.1034 7.70628 9.259 8.15211 8.46186C10.0422 10.6889 12.4357 11.9114 15.3552 12.1127L15.2976 11.7285C15.2011 10.9088 15.3654 10.1424 15.8092 9.44597C16.3639 8.57486 17.157 8.03246 18.176 7.8681C19.3512 7.67498 20.3764 8.01192 21.2331 8.84194L21.418 8.89535C22.1371 8.74127 22.813 8.48239 23.4499 8.11463L23.4971 8.09204L23.5197 8.08998C23.2444 8.90151 22.7411 9.52813 22.0241 9.98834C22.702 9.91643 23.3472 9.73565 23.9697 9.46857L23.9841 9.48088L23.5834 10.0048C23.2116 10.4629 22.7863 10.8636 22.3137 11.2128L22.2562 11.3217C22.2747 11.8415 22.2542 12.3592 22.1905 12.8729C22.0569 13.9576 21.7529 14.9931 21.2906 15.9813C20.8119 17.0024 20.1873 17.9249 19.4025 18.7343C18.0733 20.1088 16.4708 20.9963 14.6053 21.4093C13.9643 21.549 13.3151 21.623 12.6597 21.6394C10.6442 21.699 8.78489 21.1977 7.07144 20.1396L6.98926 20.0862C8.20757 20.2177 9.36631 20.0615 10.4819 19.6054C11.0736 19.363 11.6221 19.0446 12.1419 18.6357Z" fill="#7C6345"/>
</svg>
