<svg width="27" height="26" viewBox="0 0 27 26" fill="none" xmlns="http://www.w3.org/2000/svg">
<g clip-path="url(#clip0_3187_491)">
<path d="M6.03587 16.1562C6.75074 16.8658 7.45337 17.5642 8.15506 18.2625C8.22099 18.3276 8.28692 18.3918 8.35003 18.4597C8.57043 18.6957 8.5855 18.958 8.39335 19.1524C8.19745 19.3506 7.93561 19.3393 7.70391 19.1118C7.42229 18.8363 7.14633 18.5532 6.86753 18.2738C6.37588 17.7803 5.88234 17.2877 5.39257 16.7922C4.96214 16.3562 4.98098 15.8334 5.43778 15.4305C6.32596 14.6472 7.6474 14.6538 8.50544 15.471C9.14308 16.0788 9.75058 16.7196 10.3835 17.333C10.4956 17.4415 10.6604 17.5359 10.8121 17.5576C11.9282 17.7142 12.7843 18.2644 13.3965 19.2081C13.4135 19.2345 13.4352 19.2591 13.4719 19.3081C13.7827 18.8146 14.1566 18.4031 14.636 18.0983C15.0665 17.8256 15.5336 17.6604 16.0356 17.5689C16.2268 17.534 16.4331 17.4311 16.5744 17.2971C17.1998 16.6997 17.7913 16.0675 18.4186 15.472C19.2879 14.6453 20.615 14.6444 21.5041 15.4446C21.9345 15.8315 21.9581 16.3609 21.5512 16.7724C20.7836 17.5491 20.0122 18.321 19.2399 19.092C18.995 19.3365 18.7341 19.3553 18.5316 19.1534C18.3329 18.9543 18.3498 18.6834 18.589 18.4428C19.3491 17.6831 20.112 16.9272 20.8712 16.1732C20.6178 15.8334 20.0536 15.6796 19.5761 15.8513C19.3482 15.9335 19.1231 16.076 18.9469 16.2439C18.346 16.8177 17.764 17.4113 17.1819 18.0049C16.9116 18.2804 16.5932 18.4333 16.2118 18.4852C14.88 18.6655 13.9296 19.7489 13.9193 21.0955C13.9136 21.7844 13.9221 22.4743 13.9155 23.1632C13.9127 23.4406 13.713 23.6341 13.4596 23.6331C13.2063 23.6331 13.0189 23.4378 13.0047 23.1603C13.0019 23.1018 13.0038 23.0424 13.0038 22.9839C13.0038 22.395 13.0038 21.8071 13.0038 21.2182C13.001 19.7243 12.1307 18.7013 10.6632 18.4786C10.2997 18.4229 10.0002 18.2672 9.74305 18.0068C9.14214 17.3971 8.53934 16.7884 7.92713 16.1883C7.39498 15.6664 6.56802 15.6447 6.03493 16.1552L6.03587 16.1562Z" fill="#9F5337"/>
<path d="M2.94125 13.6525C2.94125 13.0475 2.93842 12.4426 2.94125 11.8368C2.94596 11.1045 3.49318 10.6147 4.22124 10.6864C5.42683 10.8063 6.29617 11.7443 6.32066 12.9579C6.32914 13.3694 6.32631 13.7818 6.32066 14.1932C6.31689 14.4933 6.13417 14.6934 5.87422 14.699C5.60673 14.7047 5.41176 14.4952 5.40799 14.1847C5.40328 13.7648 5.41553 13.3439 5.40328 12.9239C5.38162 12.2256 4.8278 11.6565 4.14966 11.6103C3.94528 11.5961 3.85392 11.6735 3.85392 11.8802C3.85674 13.0815 3.85392 14.2838 3.86051 15.4851C3.86051 15.6248 3.90195 15.7673 3.94622 15.9023C4.31072 17.0092 4.66863 18.119 5.05762 19.2175C5.14239 19.4581 5.30721 19.6997 5.49747 19.8696C6.66444 20.9058 7.84742 21.925 9.03135 22.9423C9.40809 23.266 9.59458 23.6595 9.57857 24.1568C9.57009 24.4258 9.58328 24.6948 9.57857 24.9637C9.57292 25.2751 9.38078 25.479 9.10952 25.4752C8.8458 25.4714 8.67155 25.2808 8.66119 24.9731C8.65272 24.7127 8.64424 24.4513 8.65743 24.1918C8.66967 23.9436 8.58302 23.768 8.39182 23.6048C7.2192 22.6007 6.05694 21.5824 4.88714 20.5755C4.53959 20.2763 4.3013 19.9149 4.15908 19.4798C3.80871 18.4125 3.4395 17.3499 3.10419 16.2779C3.0053 15.9627 2.96291 15.6229 2.9469 15.2917C2.92147 14.7462 2.94031 14.1998 2.94031 13.6534L2.94125 13.6525Z" fill="#9F5337"/>
<path d="M23.9837 13.6703C23.9837 14.2422 23.9978 14.8141 23.978 15.385C23.9686 15.6577 23.9281 15.939 23.8462 16.1985C23.4949 17.3017 23.1219 18.3973 22.7583 19.4958C22.618 19.9205 22.3844 20.2753 22.0425 20.5697C20.8586 21.588 19.685 22.6166 18.5011 23.6339C18.34 23.7727 18.2619 23.9218 18.2666 24.1322C18.2732 24.4097 18.2703 24.6871 18.2628 24.9646C18.2543 25.2864 18.0725 25.4789 17.7966 25.4732C17.5328 25.4676 17.3511 25.2713 17.3454 24.9712C17.3398 24.6522 17.3379 24.3323 17.3482 24.0133C17.3624 23.6085 17.5187 23.2687 17.8305 22.9998C19.037 21.957 20.2464 20.917 21.4397 19.8591C21.6243 19.6949 21.7816 19.4599 21.8645 19.2259C22.2525 18.1274 22.6142 17.0186 22.974 15.9107C23.0324 15.7304 23.0635 15.5332 23.0644 15.3435C23.0729 14.2176 23.0691 13.0909 23.0682 11.965C23.0682 11.6328 23.0088 11.5828 22.6811 11.6253C22.035 11.7093 21.5348 12.2708 21.5188 12.9436C21.5094 13.3466 21.5188 13.7505 21.516 14.1535C21.5141 14.4885 21.3333 14.7008 21.0573 14.7008C20.7813 14.7008 20.6043 14.4904 20.6024 14.1525C20.6005 13.7411 20.5949 13.3287 20.6052 12.9172C20.6354 11.7121 21.5687 10.7533 22.7706 10.6844C23.4534 10.6448 23.9714 11.1242 23.9837 11.8055C23.9837 11.8225 23.9837 11.8395 23.9837 11.8556C23.9837 12.4605 23.9837 13.0654 23.9837 13.6712V13.6703Z" fill="#9F5337"/>
<path d="M8.68558 3.2032C8.54592 3.2032 8.4353 3.20597 8.32468 3.2032C7.99281 3.19212 7.82273 3.0217 7.82135 2.69058C7.81997 1.96321 7.81997 1.23445 7.82135 0.507081C7.82135 0.17734 7.99834 0 8.32744 0C11.7691 0 15.2095 0 18.6512 0C18.9706 0 19.1503 0.178725 19.1517 0.497383C19.1545 1.22475 19.1545 1.95351 19.1517 2.68088C19.1517 3.00508 18.9581 3.19627 18.6332 3.20459C18.5281 3.20736 18.4216 3.20459 18.2889 3.20459C18.3235 3.27109 18.3456 3.31819 18.3719 3.3653C18.5903 3.76431 18.8185 4.15779 19.0217 4.56234C19.095 4.7092 19.1476 4.88654 19.1476 5.05003C19.1559 7.70874 19.1531 10.3688 19.1531 13.0275C19.1531 13.4279 18.9913 13.5887 18.5945 13.5887C15.1887 13.5887 11.783 13.5887 8.37722 13.5887C7.98728 13.5887 7.82273 13.4252 7.82273 13.0386C7.82273 10.3536 7.82135 7.66995 7.82688 4.98491C7.82688 4.86022 7.86698 4.72444 7.92367 4.61361C8.13939 4.19658 8.37031 3.78787 8.5957 3.37638C8.62197 3.32928 8.64686 3.28079 8.68558 3.2032ZM18.1741 12.6119V5.43242C18.0621 5.43242 17.957 5.43242 17.8519 5.43242C16.9642 5.43242 16.0765 5.4338 15.1873 5.43242C14.8541 5.43242 14.6522 5.18996 14.7006 4.86438C14.7393 4.60945 14.9246 4.46398 15.2219 4.46259C16.0336 4.46121 16.8467 4.46259 17.6583 4.46259C17.7109 4.46259 17.7648 4.46259 17.8423 4.46259C17.6611 4.06773 17.4896 3.6992 17.3237 3.32651C17.2836 3.23507 17.2338 3.20043 17.1315 3.20181C16.6517 3.20736 16.1733 3.20874 15.6934 3.20181C15.5662 3.19904 15.4985 3.23922 15.4307 3.34867C14.4932 4.8616 12.4771 4.83251 11.5922 3.2988C11.5645 3.25169 11.4843 3.21013 11.429 3.20874C10.9298 3.20181 10.4306 3.20874 9.93007 3.20181C9.82636 3.20181 9.77796 3.24061 9.73371 3.32512C9.5581 3.6604 9.37696 3.99292 9.19858 4.32681C9.17784 4.36561 9.16263 4.40579 9.13636 4.4612C9.20965 4.4612 9.26496 4.4612 9.32027 4.4612C10.1278 4.4612 10.9353 4.4612 11.7415 4.4612C12.0001 4.4612 12.1674 4.56234 12.2393 4.75492C12.3706 5.1096 12.1522 5.42826 11.7705 5.42965C10.8372 5.43242 9.90379 5.42965 8.97043 5.42965C8.91235 5.42965 8.85428 5.42965 8.7962 5.42965V12.6091H18.1713L18.1741 12.6119ZM12.2766 0.976754C12.2766 1.43257 12.2697 1.87592 12.278 2.32066C12.2891 2.93026 12.7689 3.44011 13.3607 3.48722C14.0148 3.53848 14.5914 3.13947 14.6619 2.50908C14.7172 2.00754 14.673 1.49353 14.673 0.97814H12.2752L12.2766 0.976754ZM8.80173 0.973983V2.22229H11.2976V0.973983H8.80173ZM15.6727 2.22229H18.1727V0.97814H15.6727V2.22229Z" fill="#008D41"/>
<path d="M12.5011 11.94C11.0035 11.9345 10.4933 10.9023 10.5956 9.91999C10.7021 8.90582 11.2137 8.0981 11.9175 7.39844C12.5218 6.79714 13.2215 6.35241 14.0677 6.17368C14.3968 6.10441 14.7287 6.09333 15.0578 6.16814C15.8003 6.33717 16.2871 6.93846 16.3313 7.72125C16.3617 8.24773 16.258 8.75065 16.0244 9.21755C15.4298 10.4146 14.5545 11.3221 13.2699 11.771C12.974 11.8749 12.6532 11.9067 12.4983 11.94H12.5011ZM14.0774 7.10195C14 7.12827 13.9336 7.14628 13.87 7.17122C13.2478 7.4206 12.7403 7.82654 12.3116 8.33501C11.9397 8.77697 11.6603 9.26882 11.5636 9.84794C11.529 10.0544 11.5179 10.2636 11.6009 10.4742C11.6493 10.4548 11.6825 10.4437 11.7129 10.4285C12.3338 10.1098 12.7721 9.63181 12.9754 8.95709C13.1109 8.50819 13.3003 8.0884 13.581 7.71294C13.7345 7.50789 13.9046 7.31531 14.0788 7.10195H14.0774ZM12.9048 10.9009C12.9795 10.8746 13.0307 10.8579 13.0818 10.8399C13.4967 10.682 13.8631 10.4437 14.1922 10.1486C14.7508 9.64843 15.1864 9.06377 15.3745 8.32254C15.4408 8.06346 15.4602 7.80022 15.3745 7.52728C15.3122 7.55499 15.2666 7.573 15.2223 7.59517C14.5932 7.9263 14.1673 8.42784 13.9723 9.11503C13.8506 9.54729 13.6737 9.95185 13.4026 10.3079C13.2533 10.5033 13.086 10.6861 12.9048 10.9009Z" fill="#008D41"/>
</g>
<defs>
<clipPath id="clip0_3187_491">
<rect width="26.9231" height="25.4273" fill="white"/>
</clipPath>
</defs>
</svg>
