<svg width="16" height="11" viewBox="0 0 16 11" fill="none" xmlns="http://www.w3.org/2000/svg">
<path fill-rule="evenodd" clip-rule="evenodd" d="M5.88646 7.82898C7.5054 6.98869 9.11204 6.15456 10.7371 5.31222C9.10793 4.46371 7.50334 3.62546 5.88646 2.78106C5.88646 4.46781 5.88646 6.13813 5.88646 7.82898ZM1.60695 10.6272C1.01731 10.432 0.620769 10.0478 0.407101 9.46229C-0.110632 8.03442 -0.264701 2.062 0.733785 0.886825C1.07483 0.484143 1.51655 0.247875 2.04044 0.192404C4.73389 -0.0972805 13.0567 -0.0561943 14.0182 0.291016C14.579 0.492356 14.9776 0.860113 15.1954 1.42305C15.7624 2.89817 15.783 8.26863 15.1194 9.69034C14.9406 10.0766 14.6468 10.3457 14.275 10.5409C13.2703 11.0689 2.92799 11.0628 1.60695 10.6272Z" fill="#7C6345"/>
</svg>
