<svg width="10" height="18" viewBox="0 0 10 18" fill="none" xmlns="http://www.w3.org/2000/svg">
<path fill-rule="evenodd" clip-rule="evenodd" d="M7.26061 2.94121C7.80094 2.92272 8.34126 2.93709 8.88364 2.93709H9.10555V0.12653C8.81586 0.0977669 8.51383 0.056694 8.21182 0.0423126C7.65916 0.015604 7.10445 -0.00906181 6.54974 0.00326538C5.70123 0.019701 4.90205 0.227211 4.20146 0.728508C3.39815 1.30582 2.95849 2.11736 2.79002 3.07475C2.72017 3.46922 2.70166 3.87806 2.69139 4.28074C2.67701 4.90942 2.68936 5.54219 2.68936 6.17087V6.4092H0V9.54642H2.67496V17.4359H5.93956V9.55873H8.60424C8.74189 8.51505 8.87543 7.48164 9.01513 6.40714C8.79941 6.40714 8.60836 6.40509 8.41524 6.40714C7.65918 6.4092 5.91902 6.40714 5.91902 6.40714C5.91902 6.40714 5.92724 4.84984 5.94573 4.17596C5.97244 3.25144 6.52099 2.96791 7.26061 2.94121Z" fill="#7C6345"/>
</svg>
