<svg width="21" height="19" viewBox="0 0 21 19" fill="none" xmlns="http://www.w3.org/2000/svg">
<path d="M14.0557 0.5H14.0566C14.814 0.498259 15.5642 0.646952 16.2637 0.9375H16.2646C16.8546 1.1816 17.3982 1.52361 17.874 1.94727L18.0742 2.13379C18.5292 2.57877 18.9047 3.09791 19.1846 3.66797L19.2988 3.91504C19.5977 4.60974 19.7502 5.34635 19.748 6.10449V6.10547C19.748 6.81741 19.602 7.57006 19.3047 8.34766V8.34863C19.0582 8.9979 18.6949 9.68167 18.2266 10.3809C17.4851 11.4862 16.4567 12.6522 15.165 13.8447C13.019 15.8244 10.895 17.1919 10.8135 17.2441L10.2588 17.5996C10.1768 17.6518 10.0703 17.6519 9.98828 17.5996H9.9873L9.43359 17.2441L9.42578 17.2393L9.41797 17.2334C9.41227 17.2298 9.40432 17.2251 9.39453 17.2188C9.37459 17.2059 9.34635 17.1879 9.31152 17.165C9.24194 17.1193 9.14446 17.0538 9.02246 16.9707C8.7782 16.8044 8.43667 16.567 8.03125 16.2686C7.21967 15.6711 6.15315 14.833 5.08301 13.8447C3.79114 12.652 2.762 11.4863 2.02051 10.3809C1.5528 9.68264 1.19171 8.99856 0.942383 8.34766C0.645078 7.57013 0.5 6.81735 0.5 6.10547C0.500002 5.34637 0.652262 4.60972 0.951172 3.91504C1.23857 3.24734 1.65454 2.64245 2.1748 2.13477L2.17578 2.13379C2.6996 1.62077 3.30871 1.21768 3.98535 0.9375H3.98633C4.68639 0.646707 5.42733 0.500025 6.19434 0.5C7.25823 0.5 8.29545 0.791344 9.19629 1.34082C9.41172 1.47223 9.61623 1.61664 9.80957 1.77344L10.125 2.0293L10.4404 1.77344C10.6338 1.61664 10.8383 1.47223 11.0537 1.34082C11.9545 0.791344 12.9918 0.5 14.0557 0.5Z" fill="#FF0707" stroke="#FF0707"/>
</svg>
