<svg width="21" height="19" viewBox="0 0 21 19" fill="none" xmlns="http://www.w3.org/2000/svg">
<path d="M14.0557 1H14.0576C14.7488 0.998409 15.434 1.13427 16.0723 1.39941H16.0732C16.6884 1.65393 17.2492 2.02423 17.7246 2.49023V2.49121C18.1975 2.95375 18.5763 3.50418 18.8389 4.11133V4.1123C19.1111 4.74479 19.25 5.41345 19.248 6.10254V6.10547C19.248 6.74891 19.1162 7.44107 18.8379 8.16895L18.8369 8.17188C18.6641 8.62706 18.4277 9.10613 18.1299 9.60156L17.8115 10.1025C17.0972 11.1674 16.0965 12.3039 14.8252 13.4775C12.7106 15.4282 10.6155 16.7773 10.5439 16.8232L10.124 17.0918L9.7041 16.8232L9.68848 16.8135L9.58594 16.7471C9.51862 16.7028 9.42333 16.6391 9.30371 16.5576C9.06395 16.3944 8.72807 16.1597 8.32812 15.8652C7.52673 15.2753 6.47468 14.4498 5.42188 13.4775C4.15061 12.3039 3.1498 11.1674 2.43555 10.1025H2.43652C1.98607 9.4301 1.64307 8.77954 1.40918 8.16895H1.41016C1.13181 7.44103 1 6.74895 1 6.10547C1 5.41442 1.13894 4.74481 1.41113 4.1123C1.67271 3.50474 2.05096 2.95414 2.52441 2.49219L2.52539 2.49121C3.00364 2.0228 3.55918 1.65512 4.17676 1.39941H4.17773C4.8162 1.1342 5.49228 1.00002 6.19434 1C7.1669 1 8.1144 1.26605 8.93652 1.76758C9.1332 1.88756 9.31922 2.01943 9.49512 2.16211L10.125 2.67285L10.7549 2.16211C10.9308 2.01943 11.1168 1.88756 11.3135 1.76758C12.1356 1.26605 13.0831 1 14.0557 1Z" stroke="#69943F" stroke-width="2"/>
</svg>
